# xmcd CD database file
#
# Track frame offsets:
#	150
#	24646
#	48959
#	72071
#	94096
#	109956
#	133337
#	156949
#	179670
#	200218
#
# Disc length: 2982 seconds
#
# Revision: 0
# Processed by: cddbd v1.5.1PL0 Copyright (c) Steve Scherf et al.
# Submitted via: CDex 1.51
#
DISCID=950ba40a
DTITLE=KONAMI - 幻想水滸伝?音楽集〜風のざわめき〜
DYEAR=1900
DGENRE=Game
TTITLE0=あひるぼっこ
TTITLE1=風のざわめき
TTITLE2=コロクのテーマ
TTITLE3=橋上の街
TTITLE4=探偵キッドのテーマ
TTITLE5=大空洞
TTITLE6=旅立ち
TTITLE7=会話2
TTITLE8=風と大地
TTITLE9=かつての英雄を求めて
EXTD=
EXTT0=
EXTT1=
EXTT2=
EXTT3=
EXTT4=
EXTT5=
EXTT6=
EXTT7=
EXTT8=
EXTT9=
PLAYORDER=
